<svg width="20" height="20" viewBox="0 0 20 20" fill="none" xmlns="http://www.w3.org/2000/svg">
<path fill-rule="evenodd" clip-rule="evenodd" d="M19.634 17.9638L14.158 12.4857C15.1395 11.1469 15.6654 9.52837 15.658 7.86832C15.6393 3.53505 12.1345 0.0251076 7.80123 7.96008e-05C5.72753 -0.0093027 3.73621 0.811057 2.27087 2.27841C0.805532 3.74575 -0.0120933 5.7382 0.000135221 7.81189C0.0188643 12.1456 3.52402 15.6558 7.85766 15.6808C9.52447 15.6881 11.1489 15.1561 12.4886 14.1643L12.4943 14.1601L17.9653 19.6339C18.2611 19.9442 18.7019 20.0698 19.1168 19.9621C19.5318 19.8543 19.8557 19.5301 19.9631 19.115C20.0705 18.7 19.9445 18.2593 19.634 17.9638ZM7.85119 14.1134C4.38447 14.0935 1.58039 11.2856 1.56517 7.81883C1.55581 6.16009 2.20997 4.56645 3.38202 3.39266C4.55406 2.21887 6.14673 1.56235 7.80547 1.56924C11.2722 1.58918 14.0763 4.39708 14.0915 7.86383C14.1009 9.52256 13.4467 11.1162 12.2746 12.29C11.1026 13.4638 9.50994 14.1203 7.85119 14.1134Z" fill="white"/>
</svg>
