<svg width="26" height="25" viewBox="0 0 26 25" fill="none" xmlns="http://www.w3.org/2000/svg">
<path d="M17.4399 1.17364C15.993 0.591325 14.461 0.295898 12.8866 0.295898C6.73719 0.295898 1.53048 4.89102 0.77591 10.9843C0.71402 11.4825 0.682617 11.9928 0.682617 12.5008C0.682617 19.2297 6.15731 24.7038 12.8866 24.7038C15.3192 24.7038 17.586 23.9861 19.4912 22.7541C19.5594 22.7297 19.6204 22.6916 19.6689 22.6401C22.9363 20.448 25.0908 16.7215 25.0908 12.5002C25.0908 7.48919 22.0881 3.04285 17.4399 1.17364ZM12.8866 23.7892C10.6802 23.7892 8.62134 23.1502 6.88018 22.052C6.88719 22.0203 6.89176 21.9871 6.89176 21.9529C6.89176 21.6267 6.92286 20.9776 6.97134 20.7038C7.52896 17.616 10.9171 17.1553 12.8869 17.1553C14.5527 17.1553 18.4695 17.5352 18.8521 21.0505C18.8588 21.1233 18.8689 21.5255 18.8765 22.0624C17.1393 23.1547 15.0863 23.7892 12.8866 23.7892ZM19.7799 21.4313C19.7744 21.2002 19.7686 21.0163 19.7613 20.9526C19.4399 18.002 16.8698 16.2407 12.8869 16.2407C8.99268 16.2407 6.57225 17.7682 6.07103 20.5425C6.0314 20.7666 6.00579 21.1182 5.99146 21.4297C3.32134 19.3633 1.59725 16.1303 1.59725 12.5005C1.59725 12.0303 1.62621 11.5578 1.68384 11.0968C2.3817 5.46084 7.19786 1.21053 12.8869 1.21053C14.3433 1.21053 15.7604 1.4837 17.0985 2.02212C21.3982 3.75169 24.1762 7.8645 24.1762 12.5005C24.1762 16.1313 22.4518 19.3651 19.7799 21.4313ZM12.8869 6.24132C10.6421 6.24132 9.07408 7.91541 9.07408 10.3124C9.07408 12.8416 10.7844 14.8993 12.8869 14.8993C14.9893 14.8993 16.6997 12.8416 16.6997 10.3124C16.6997 7.91541 15.1317 6.24132 12.8869 6.24132ZM12.8869 13.9843C11.2887 13.9843 9.98872 12.3371 9.98872 10.3121C9.98872 8.42425 11.1533 7.15565 12.8869 7.15565C14.6204 7.15565 15.7851 8.42395 15.7851 10.3121C15.7851 12.3371 14.4848 13.9843 12.8869 13.9843Z" fill="white"/>
</svg>
