<svg width="23" height="23" viewBox="0 0 23 23" fill="none" xmlns="http://www.w3.org/2000/svg">
<mask id="path-1-inside-1" fill="white">
<path d="M1.06066 13.104C0.712377 13.3595 0.471202 13.735 0.38378 14.158C0.296358 14.581 0.368901 15.0214 0.587378 15.394L2.69743 19.025C2.91042 19.3903 3.24702 19.6675 3.64646 19.8064C3.85966 19.8767 4.08507 19.9023 4.30859 19.8815C4.53211 19.8607 4.74895 19.794 4.94553 19.6856L6.70555 18.8771C6.97177 19.0496 7.24292 19.2074 7.52393 19.3528L7.70388 21.3396C7.70825 21.3835 7.71483 21.4271 7.7236 21.4703C7.79855 21.8678 8.00854 22.2273 8.31802 22.4878C8.62751 22.7483 9.0175 22.8939 9.42199 22.9H13.6298C14.0656 22.9012 14.4858 22.7375 14.8059 22.4416C15.126 22.1458 15.3223 21.7398 15.3553 21.3051L15.5328 19.3578C15.8186 19.2148 16.0967 19.0568 16.3659 18.8845L18.158 19.7078L18.2147 19.7324C18.6044 19.8967 19.0409 19.9122 19.4412 19.7759C19.8416 19.6395 20.1779 19.3609 20.3864 18.9929L22.4471 15.4088C22.6697 15.0371 22.7463 14.596 22.662 14.1711C22.5777 13.7461 22.3387 13.3676 21.9911 13.109L20.4998 11.9726C20.5121 11.8074 20.522 11.6349 20.522 11.45C20.522 11.2651 20.522 11.1123 20.5022 10.957L22.107 9.81569L22.1316 9.79597C22.4794 9.54016 22.7204 9.16483 22.8082 8.74212C22.896 8.3194 22.8245 7.87915 22.6074 7.50598L20.4554 3.87501C20.2431 3.48985 19.887 3.20426 19.465 3.08051C19.043 2.95676 18.5891 3.00488 18.2024 3.21439L16.4424 4.02291C16.1761 3.85036 15.905 3.6926 15.6215 3.54716L15.4416 1.56036C15.4373 1.5165 15.4307 1.47289 15.4218 1.42972C15.3465 1.03238 15.1363 0.673204 14.827 0.412758C14.5176 0.152311 14.1278 0.00653183 13.7234 7.11545e-06H9.52306C9.08719 -0.0012439 8.66699 0.162509 8.3469 0.458363C8.02681 0.754217 7.83055 1.16025 7.79755 1.59487L7.62007 3.54223C7.33416 3.68513 7.05604 3.84312 6.78689 4.01552L5.00469 3.1922L4.94553 3.16755C4.55582 3.00325 4.11934 2.9878 3.71899 3.12413C3.31864 3.26046 2.9823 3.53907 2.77385 3.90706L0.693374 7.49119C0.470719 7.86434 0.394838 8.30697 0.480495 8.73297C0.566151 9.15898 0.807218 9.53788 1.1568 9.79597L1.18145 9.81569L2.78617 10.957C2.78617 11.1148 2.76645 11.2774 2.76645 11.45C2.76645 11.6226 2.76645 11.7754 2.78617 11.9282L1.10503 13.072L1.06066 13.104ZM4.79023 13.5453C4.98134 13.415 5.13193 13.2335 5.22478 13.0217C5.31763 12.8098 5.34899 12.5761 5.31528 12.3473C5.26548 12.0506 5.23747 11.7507 5.23147 11.45C5.23825 11.1476 5.26708 10.846 5.31774 10.5478C5.34971 10.3239 5.31947 10.0956 5.23034 9.88779C5.14121 9.67997 4.99663 9.50067 4.81241 9.36953L3.1436 8.18386L4.5807 5.71884L6.42453 6.55695C6.6344 6.65376 6.86726 6.6896 7.09653 6.6604C7.3258 6.6312 7.54223 6.53812 7.72113 6.39179C8.19783 6.02151 8.72384 5.71951 9.28395 5.49452C9.48764 5.40671 9.66385 5.26555 9.79401 5.08593C9.92416 4.90632 10.0034 4.69491 10.0235 4.47401L10.2059 2.46749H13.0505L13.2329 4.47401C13.2529 4.69491 13.3322 4.90632 13.4624 5.08593C13.5925 5.26555 13.7687 5.40671 13.9724 5.49452C14.5433 5.73749 15.0823 6.0496 15.5771 6.42384C15.7549 6.55701 15.9653 6.63969 16.1862 6.66312C16.407 6.68655 16.6301 6.64987 16.8318 6.55695L18.6757 5.70898L20.1547 8.18879L18.4908 9.37199C18.3066 9.50314 18.162 9.68243 18.0729 9.89025C17.9837 10.0981 17.9535 10.3264 17.9855 10.5503C18.0344 10.8478 18.0616 11.1485 18.0668 11.45C18.0599 11.7516 18.0311 12.0523 17.9805 12.3497C17.9497 12.5667 17.9773 12.788 18.0605 12.9908C18.1437 13.1936 18.2795 13.3705 18.4538 13.5034L20.0191 14.6964L18.5721 17.1861L16.7332 16.3406C16.5234 16.2438 16.2905 16.2079 16.0612 16.2371C15.832 16.2663 15.6155 16.3594 15.4366 16.5057C14.9599 16.8759 14.4339 17.1779 13.8738 17.403C13.6701 17.4908 13.4939 17.632 13.3638 17.8116C13.2336 17.9912 13.1543 18.2026 13.1343 18.4235L12.9519 20.43H10.1023L9.91993 18.4235C9.8999 18.2026 9.82063 17.9912 9.69048 17.8116C9.56032 17.632 9.38411 17.4908 9.18042 17.403C8.60946 17.1602 8.07051 16.848 7.5757 16.4737C7.39796 16.3405 7.18753 16.2578 6.96667 16.2344C6.74582 16.211 6.52273 16.2477 6.321 16.3406L4.4821 17.1861L3.05239 14.7211L4.79023 13.5453Z"/>
</mask>
<path d="M1.06066 13.104C0.712377 13.3595 0.471202 13.735 0.38378 14.158C0.296358 14.581 0.368901 15.0214 0.587378 15.394L2.69743 19.025C2.91042 19.3903 3.24702 19.6675 3.64646 19.8064C3.85966 19.8767 4.08507 19.9023 4.30859 19.8815C4.53211 19.8607 4.74895 19.794 4.94553 19.6856L6.70555 18.8771C6.97177 19.0496 7.24292 19.2074 7.52393 19.3528L7.70388 21.3396C7.70825 21.3835 7.71483 21.4271 7.7236 21.4703C7.79855 21.8678 8.00854 22.2273 8.31802 22.4878C8.62751 22.7483 9.0175 22.8939 9.42199 22.9H13.6298C14.0656 22.9012 14.4858 22.7375 14.8059 22.4416C15.126 22.1458 15.3223 21.7398 15.3553 21.3051L15.5328 19.3578C15.8186 19.2148 16.0967 19.0568 16.3659 18.8845L18.158 19.7078L18.2147 19.7324C18.6044 19.8967 19.0409 19.9122 19.4412 19.7759C19.8416 19.6395 20.1779 19.3609 20.3864 18.9929L22.4471 15.4088C22.6697 15.0371 22.7463 14.596 22.662 14.1711C22.5777 13.7461 22.3387 13.3676 21.9911 13.109L20.4998 11.9726C20.5121 11.8074 20.522 11.6349 20.522 11.45C20.522 11.2651 20.522 11.1123 20.5022 10.957L22.107 9.81569L22.1316 9.79597C22.4794 9.54016 22.7204 9.16483 22.8082 8.74212C22.896 8.3194 22.8245 7.87915 22.6074 7.50598L20.4554 3.87501C20.2431 3.48985 19.887 3.20426 19.465 3.08051C19.043 2.95676 18.5891 3.00488 18.2024 3.21439L16.4424 4.02291C16.1761 3.85036 15.905 3.6926 15.6215 3.54716L15.4416 1.56036C15.4373 1.5165 15.4307 1.47289 15.4218 1.42972C15.3465 1.03238 15.1363 0.673204 14.827 0.412758C14.5176 0.152311 14.1278 0.00653183 13.7234 7.11545e-06H9.52306C9.08719 -0.0012439 8.66699 0.162509 8.3469 0.458363C8.02681 0.754217 7.83055 1.16025 7.79755 1.59487L7.62007 3.54223C7.33416 3.68513 7.05604 3.84312 6.78689 4.01552L5.00469 3.1922L4.94553 3.16755C4.55582 3.00325 4.11934 2.9878 3.71899 3.12413C3.31864 3.26046 2.9823 3.53907 2.77385 3.90706L0.693374 7.49119C0.470719 7.86434 0.394838 8.30697 0.480495 8.73297C0.566151 9.15898 0.807218 9.53788 1.1568 9.79597L1.18145 9.81569L2.78617 10.957C2.78617 11.1148 2.76645 11.2774 2.76645 11.45C2.76645 11.6226 2.76645 11.7754 2.78617 11.9282L1.10503 13.072L1.06066 13.104ZM4.79023 13.5453C4.98134 13.415 5.13193 13.2335 5.22478 13.0217C5.31763 12.8098 5.34899 12.5761 5.31528 12.3473C5.26548 12.0506 5.23747 11.7507 5.23147 11.45C5.23825 11.1476 5.26708 10.846 5.31774 10.5478C5.34971 10.3239 5.31947 10.0956 5.23034 9.88779C5.14121 9.67997 4.99663 9.50067 4.81241 9.36953L3.1436 8.18386L4.5807 5.71884L6.42453 6.55695C6.6344 6.65376 6.86726 6.6896 7.09653 6.6604C7.3258 6.6312 7.54223 6.53812 7.72113 6.39179C8.19783 6.02151 8.72384 5.71951 9.28395 5.49452C9.48764 5.40671 9.66385 5.26555 9.79401 5.08593C9.92416 4.90632 10.0034 4.69491 10.0235 4.47401L10.2059 2.46749H13.0505L13.2329 4.47401C13.2529 4.69491 13.3322 4.90632 13.4624 5.08593C13.5925 5.26555 13.7687 5.40671 13.9724 5.49452C14.5433 5.73749 15.0823 6.0496 15.5771 6.42384C15.7549 6.55701 15.9653 6.63969 16.1862 6.66312C16.407 6.68655 16.6301 6.64987 16.8318 6.55695L18.6757 5.70898L20.1547 8.18879L18.4908 9.37199C18.3066 9.50314 18.162 9.68243 18.0729 9.89025C17.9837 10.0981 17.9535 10.3264 17.9855 10.5503C18.0344 10.8478 18.0616 11.1485 18.0668 11.45C18.0599 11.7516 18.0311 12.0523 17.9805 12.3497C17.9497 12.5667 17.9773 12.788 18.0605 12.9908C18.1437 13.1936 18.2795 13.3705 18.4538 13.5034L20.0191 14.6964L18.5721 17.1861L16.7332 16.3406C16.5234 16.2438 16.2905 16.2079 16.0612 16.2371C15.832 16.2663 15.6155 16.3594 15.4366 16.5057C14.9599 16.8759 14.4339 17.1779 13.8738 17.403C13.6701 17.4908 13.4939 17.632 13.3638 17.8116C13.2336 17.9912 13.1543 18.2026 13.1343 18.4235L12.9519 20.43H10.1023L9.91993 18.4235C9.8999 18.2026 9.82063 17.9912 9.69048 17.8116C9.56032 17.632 9.38411 17.4908 9.18042 17.403C8.60946 17.1602 8.07051 16.848 7.5757 16.4737C7.39796 16.3405 7.18753 16.2578 6.96667 16.2344C6.74582 16.211 6.52273 16.2477 6.321 16.3406L4.4821 17.1861L3.05239 14.7211L4.79023 13.5453Z" fill="white" stroke="white" mask="url(#path-1-inside-1)"/>
<path d="M11.6013 15.6815L11.5987 15.6816C11.0418 15.6872 10.4894 15.5816 9.97381 15.3711L9.8793 15.6025L9.97381 15.3711C9.45821 15.1605 8.98979 14.8492 8.59598 14.4554C8.20217 14.0616 7.89088 13.5932 7.68034 13.0776C7.4698 12.562 7.36424 12.0096 7.36984 11.4527L7.36985 11.4527V11.4501C7.36985 10.6133 7.61802 9.79516 8.08297 9.09931C8.54792 8.40346 9.20878 7.86111 9.98197 7.54085C10.7552 7.22058 11.6059 7.13679 12.4268 7.30006C13.2476 7.46333 14.0015 7.86633 14.5933 8.4581C15.1851 9.04987 15.5881 9.80383 15.7513 10.6246C15.9146 11.4455 15.8308 12.2962 15.5106 13.0694C15.1903 13.8426 14.6479 14.5035 13.9521 14.9684C13.2562 15.4334 12.4381 15.6815 11.6013 15.6815ZM12.8604 9.56572C12.488 9.31692 12.0503 9.18401 11.6025 9.18377L9.58487 11.4501H9.33487C9.33487 11.4506 9.33487 11.451 9.33487 11.4514C9.33511 11.8992 9.46802 12.3369 9.71682 12.7093C9.96586 13.082 10.3198 13.3725 10.7339 13.544C11.1481 13.7155 11.6038 13.7604 12.0434 13.673C12.483 13.5855 12.8869 13.3697 13.2038 13.0527C13.5208 12.7358 13.7366 12.3319 13.8241 11.8923C13.9115 11.4527 13.8667 10.997 13.6951 10.5828C13.5236 10.1687 13.2331 9.81475 12.8604 9.56572Z" fill="white" stroke="white" stroke-width="0.5"/>
</svg>
