<svg width="20" height="25" viewBox="0 0 20 25" fill="none" xmlns="http://www.w3.org/2000/svg">
<path d="M4.3102 4.04992C4.31107 2.83594 3.4453 1.82577 2.32298 1.73127C1.20066 1.63676 0.199986 2.48976 0.0261065 3.68918C-0.147773 4.8886 0.563737 6.03025 1.65925 6.30965V10.674C0.689098 10.9225 0.00423339 11.8571 0.00423339 12.9324C0.00423339 14.0077 0.689098 14.9423 1.65925 15.1908V19.5525C0.595036 19.8239 -0.11194 20.9119 0.014756 22.0832C0.141452 23.2546 1.06165 24.1379 2.15522 24.1379C3.2488 24.1379 4.16899 23.2546 4.29569 22.0832C4.42238 20.9119 3.71541 19.8239 2.65119 19.5525V15.1908C3.62135 14.9423 4.30621 14.0077 4.30621 12.9324C4.30621 11.8571 3.62135 10.9225 2.65119 10.674V6.30965C3.62235 6.06097 4.30852 5.12634 4.3102 4.04992ZM0.992179 4.04992C0.992179 3.35724 1.51289 2.79571 2.15522 2.79571C2.79755 2.79571 3.31826 3.35724 3.31826 4.04992C3.31826 4.74261 2.79755 5.30414 2.15522 5.30414C1.51386 5.30267 0.994657 4.74157 0.994659 4.04992H0.992179ZM3.31826 21.8122C3.31826 22.5049 2.79755 23.0664 2.15522 23.0664C1.51289 23.0664 0.992179 22.5049 0.992179 21.8122C0.992179 21.1195 1.51289 20.558 2.15522 20.558C2.79755 20.558 3.31826 21.1195 3.31826 21.8122ZM3.31826 12.9311C3.31826 13.6237 2.79755 14.1853 2.15522 14.1853C1.51289 14.1853 0.992179 13.6237 0.992179 12.9311C0.992179 12.2384 1.51289 11.6768 2.15522 11.6768C2.46541 11.6768 2.76274 11.8104 2.98114 12.048C3.19954 12.2855 3.32091 12.6073 3.31826 12.9418V12.9311Z" fill="white"/>
<path d="M17.2413 6.89655V0H6.89648V6.89655H17.2413ZM7.99758 1.05533H16.1402V5.84123H7.99758V1.05533Z" fill="white"/>
<path d="M19.8275 9H6.89648V15.8966H19.8275V9ZM18.7404 14.84H7.98358V10.0565H18.7404V14.84Z" fill="white"/>
<path d="M17.2413 18H6.89648V24.8966H17.2413V18ZM16.1402 23.8412H7.99758V19.0553H16.1402V23.8412Z" fill="white"/>
</svg>
