<svg width="25" height="25" viewBox="0 0 25 25" fill="none" xmlns="http://www.w3.org/2000/svg">
<path fill-rule="evenodd" clip-rule="evenodd" d="M17.595 19.5588L16.6382 23.2265H16.6329C15.3519 23.7261 13.9593 23.9972 12.4975 23.9972C11.0411 23.9972 9.64838 23.7261 8.36737 23.2318L7.40527 19.5588L9.44111 17.4326H15.6017L17.595 19.5588Z" stroke="white" stroke-linecap="round" stroke-linejoin="round"/>
<path fill-rule="evenodd" clip-rule="evenodd" d="M21.0182 4.77134L20.7844 10.2144L17.3293 11.4529L12.4976 7.82242V4.0112L16.9838 1.91162C18.5306 2.56541 19.902 3.54876 21.0182 4.77134Z" stroke="white" stroke-linecap="round" stroke-linejoin="round"/>
<path fill-rule="evenodd" clip-rule="evenodd" d="M12.4972 4.0112V7.82242L7.67071 11.4529L4.48144 9.90604L4.01367 4.7341C5.12462 3.52748 6.48538 2.56009 8.01091 1.91162L12.4972 4.0112Z" stroke="white" stroke-linecap="round" stroke-linejoin="round"/>
<path fill-rule="evenodd" clip-rule="evenodd" d="M9.44109 17.4325L7.40526 19.5587L2.8499 18.7454C1.94094 17.3581 1.33501 15.7581 1.10645 14.0412L4.48175 9.90576L7.67103 11.4526L9.44109 17.4325Z" stroke="white" stroke-linecap="round" stroke-linejoin="round"/>
<path fill-rule="evenodd" clip-rule="evenodd" d="M23.8937 14.0308C23.6704 15.753 23.0591 17.353 22.1502 18.7457L17.5948 19.5589L15.5537 17.4327L17.3291 11.4528L20.7841 10.2144L23.8937 14.0308Z" stroke="white" stroke-linecap="round" stroke-linejoin="round"/>
<path fill-rule="evenodd" clip-rule="evenodd" d="M24 12.4999C24 13.0208 23.9681 13.531 23.8937 14.0307C23.6704 15.7529 23.0592 17.3528 22.1502 18.7455C20.8479 20.7654 18.9184 22.3547 16.6381 23.2264H16.6328C15.3518 23.7261 13.9591 23.9972 12.4974 23.9972C11.0409 23.9972 9.64824 23.7261 8.36723 23.2318C6.08691 22.3547 4.15739 20.7707 2.84977 18.7455C1.94082 17.3581 1.33488 15.7582 1.10632 14.0413C1.03721 13.5364 1 13.0208 1 12.4999C1 9.50187 2.14281 6.78042 4.01386 4.73391C5.12481 3.52729 6.48557 2.5599 8.0111 1.91143C9.39311 1.32674 10.908 1.00244 12.4974 1.00244C14.092 1.00244 15.6069 1.32674 16.9836 1.91143C18.5304 2.56522 19.9018 3.54857 21.018 4.77115C22.8731 6.8176 24 9.52315 24 12.4999Z" stroke="white" stroke-linecap="round" stroke-linejoin="round"/>
</svg>
